Coordinates
nRows=8
nColumns=24

# SIMM Motion File Header:
name Coordinates
datacolumns 24
datarows 8
otherdata 1
range 0.36867000000000000000 0.37567000000000000000
endheader
time	pelvis_tx	pelvis_ty	pelvis_tz	pelvis_tilt	pelvis_list	pelvis_rotation	hip_flexion_r	hip_adduction_r	hip_rotation_r	knee_angle_r	ankle_angle_r	subtalar_angle_r	mtp_angle_r	hip_flexion_l	hip_adduction_l	hip_rotation_l	knee_angle_l	ankle_angle_l	subtalar_angle_l	mtp_angle_l	lumbar_extension	lumbar_bending	lumbar_rotation
      0.36867000000000000000	      1.05347412348875880000	      0.67658254226561110000	     -0.28284040227713630000	      6.15687489448048010000	      1.99341925354795470000	     -0.39837354017319027000	     18.27947661654578900000	     -7.03239848597835240000	    -15.26750027165528900000	    -17.75273455045042000000	     -0.94658599426700474000	     -0.00000000000000119650	     -0.00000000000004213381	    -20.35758420709325000000	      6.45489572762857660000	     -1.77376948525064760000	     -1.00547252123676460000	      9.32995926962063390000	      0.00000000000000965698	     -0.00000000000001108952	    -22.42631956216038300000	     -2.57485137484522620000	     -1.87668585098168990000
      0.36967000000000000000	      1.05456269295811440000	      0.67634429215229286000	     -0.28269301186262696000	      6.15815633142766660000	      2.01124247171508190000	     -0.37910929988548403000	     18.23956304044404300000	     -7.02307674816352550000	    -15.16748729947537900000	    -17.27012269359085300000	     -1.01311946814154850000	     -0.00000000000000102153	     -0.00000000000004244703	    -20.47573989711635900000	      6.44641381638403480000	     -1.85628687259948030000	     -0.97468398542701917000	      9.35252695742929420000	      0.00000000000000957504	     -0.00000000000001045602	    -22.43370509716958900000	     -2.57222702820952390000	     -1.89485118408656850000
      0.37067000000000000000	      1.05565555728400920000	      0.67610375117763377000	     -0.28254595307092900000	      6.15976644884414080000	      2.02811059515531600000	     -0.36138764267972856000	     18.19750431272517600000	     -7.01168884896794080000	    -15.05291925163832400000	    -16.78933528200545700000	     -1.07788098788567430000	     -0.00000000000000084929	     -0.00000000000004277592	    -20.59365819078477200000	      6.43761593359085540000	     -1.93643737342003970000	     -0.94588334522149542000	      9.37521992586894900000	      0.00000000000000949690	     -0.00000000000000979396	    -22.44076106794607400000	     -2.56773461520489340000	     -1.91269543472651350000
      0.37167000000000000000	      1.05674985322875000000	      0.67586244658252770000	     -0.28239900482016811000	      6.16148612641704490000	      2.04466035368658750000	     -0.34418017983462124000	     18.15473053446726900000	     -6.99961222931210700000	    -14.93349951191557100000	    -16.30915601884478100000	     -1.14205185625299640000	     -0.00000000000000067797	     -0.00000000000004311003	    -20.71149735233495200000	      6.42871272694813100000	     -2.01579891206451120000	     -0.91774533688404303000	      9.39795465451893360000	      0.00000000000000942003	     -0.00000000000000912237	    -22.44770718397832000000	     -2.56261951341062310000	     -1.93043265787814810000
      0.37267000000000000000	      1.05784843561354070000	      0.67561946922188143000	     -0.28225185218207693000	      6.16399268712061410000	      2.06001731969186830000	     -0.32866890939660165000	     18.10946642230395700000	     -6.98517545320250390000	    -14.79815075288295700000	    -15.83129960638634300000	     -1.20437984403923460000	     -0.00000000000000047252	     -0.00000000000004350738	    -20.82962783563692700000	      6.41929502277012260000	     -2.09229531324955250000	     -0.89173787857449627000	      9.42012357889820960000	      0.00000000000000935608	     -0.00000000000000846769	    -22.45484905760373800000	     -2.55554691707448800000	     -1.94759136872711310000
      0.37367000000000000000	      1.05894844681168100000	      0.67537593427272158000	     -0.28210463141487568000	      6.16676154220107090000	      2.07497668818848570000	     -0.31372303642761173000	     18.06337219883883400000	     -6.96995195827497580000	    -14.65749232074705300000	    -15.35421747749532200000	     -1.26609353829844420000	     -0.00000000000000025570	     -0.00000000000004392582	    -20.94785542618950200000	      6.40970581941368690000	     -2.16783666861478250000	     -0.86644060360758546000	      9.44210390185391190000	      0.00000000000000929644	     -0.00000000000000781865	    -22.46205618376020800000	     -2.54782182255773030000	     -1.96455724214185510000
      0.37467000000000000000	      1.06004998726470820000	      0.67513188070004759000	     -0.28195742484017983000	      6.16984012158314330000	      2.08962089863929550000	     -0.29923473797797417000	     18.01637872167533400000	     -6.95411306666778820000	    -14.51102389034250700000	    -14.87827360677274400000	     -1.32713556842924340000	     -0.00000000000000003048	     -0.00000000000004436463	    -21.06613129834514500000	      6.40000748797828130000	     -2.24189077134170530000	     -0.84215985049793851000	      9.46351903947594410000	      0.00000000000000923801	     -0.00000000000000717374	    -22.46937812628126400000	     -2.53948792172409510000	     -1.98150649347316630000
      0.37567000000000000000	      1.06115611548239590000	      0.67488627125683065000	     -0.28181026084300015000	      6.17384787387005930000	      2.10331963495268330000	     -0.28611916308639268000	     17.96668748341669500000	     -6.93642798502161820000	    -14.34712546513204900000	    -14.40574451055549900000	     -1.38616260617481310000	      0.00000000000000021996	     -0.00000000000004486457	    -21.18455201530999700000	      6.38998177230597000000	     -2.31148311615370930000	     -0.82092866296008127000	      9.48323862109695530000	      0.00000000000000918319	     -0.00000000000000654125	    -22.47704451789607200000	     -2.52932760193982720000	     -1.99840587855418560000
